<?xml version="1.0" encoding="UTF-8"?>
<svg xmlns="http://www.w3.org/2000/svg" xmlns:xlink="http://www.w3.org/1999/xlink" width="74px" height="80px" viewBox="0 0 74 80" version="1.1">
<g id="surface1">
<path style=" stroke:none;fill-rule:nonzero;fill:rgb(75.294119%,16.078432%,17.647059%);fill-opacity:1;" d="M 0 0 C 24.421875 0 48.839844 0 74 0 C 74 26.398438 74 52.800781 74 80 C 49.578125 80 25.160156 80 0 80 C 0 53.601562 0 27.199219 0 0 Z M 0 0 "/>
<path style=" stroke:none;fill-rule:nonzero;fill:rgb(1.568628%,0%,0.392157%);fill-opacity:1;" d="M 3.679688 3.679688 C 25.609375 3.679688 47.539062 3.679688 70.132812 3.679688 C 70.132812 15.390625 70.132812 27.105469 70.132812 39.171875 C 48.203125 39.171875 26.277344 39.171875 3.679688 39.171875 C 3.679688 27.460938 3.679688 15.746094 3.679688 3.679688 Z M 3.679688 3.679688 "/>
<path style=" stroke:none;fill-rule:nonzero;fill:rgb(72.941178%,58.431375%,34.509805%);fill-opacity:1;" d="M 0 0 C 24.421875 0 48.839844 0 74 0 C 74 26.398438 74 52.800781 74 80 C 49.578125 80 25.160156 80 0 80 C 0 53.601562 0 27.199219 0 0 Z M 3.679688 3.679688 C 3.679688 15.390625 3.679688 27.105469 3.679688 39.171875 C 25.609375 39.171875 47.539062 39.171875 70.132812 39.171875 C 70.132812 27.460938 70.132812 15.746094 70.132812 3.679688 C 48.203125 3.679688 26.277344 3.679688 3.679688 3.679688 Z M 23.1875 41.050781 C 23.03125 41.054688 22.871094 41.054688 22.710938 41.054688 C 16.367188 41.09375 10.023438 41.144531 3.679688 41.195312 C 3.679688 52.847656 3.679688 64.5 3.679688 76.503906 C 6.265625 76.515625 8.847656 76.527344 11.507812 76.539062 C 13.15625 76.546875 14.804688 76.554688 16.453125 76.5625 C 19.0625 76.574219 21.671875 76.585938 24.28125 76.597656 C 26.183594 76.605469 28.085938 76.613281 29.988281 76.621094 C 30.992188 76.628906 31.996094 76.632812 33 76.636719 C 40.78125 76.667969 40.78125 76.667969 44.558594 76.8125 C 53.046875 77.113281 61.691406 76.78125 70.132812 76.691406 C 70.132812 64.914062 70.132812 53.140625 70.132812 41.011719 C 56.265625 41 56.265625 41 42.398438 41 C 42.1875 41 41.976562 41 41.757812 41 C 35.566406 41.003906 29.378906 41.015625 23.1875 41.050781 Z M 23.1875 41.050781 "/>
<path style=" stroke:none;fill-rule:nonzero;fill:rgb(99.215686%,99.215686%,99.215686%);fill-opacity:1;" d="M 16.199219 9.929688 C 18.8125 9.929688 21.421875 9.929688 24.113281 9.929688 C 24.664062 11.25 25.195312 12.535156 25.644531 13.882812 C 25.699219 14.042969 25.75 14.199219 25.808594 14.363281 C 25.921875 14.699219 26.035156 15.039062 26.148438 15.375 C 26.449219 16.269531 26.753906 17.164062 27.054688 18.058594 C 27.117188 18.238281 27.179688 18.417969 27.242188 18.605469 C 27.964844 20.730469 28.710938 22.847656 29.460938 24.960938 C 29.511719 25.097656 29.558594 25.230469 29.605469 25.371094 C 29.695312 25.621094 29.785156 25.871094 29.875 26.121094 C 30.066406 26.667969 30.230469 27.203125 30.375 27.769531 C 30.433594 21.882812 30.496094 15.996094 30.558594 9.929688 C 37.179688 9.929688 43.800781 9.929688 50.621094 9.929688 C 51.625 11.933594 51.625 11.933594 52.648438 13.976562 C 53.195312 15.019531 53.746094 16.066406 54.304688 17.101562 C 55.691406 14.765625 56.921875 12.347656 58.167969 9.929688 C 60.539062 9.929688 62.90625 9.929688 65.347656 9.929688 C 64.117188 12.1875 64.117188 12.1875 63.414062 13.207031 C 62.628906 14.363281 61.875 15.535156 61.125 16.710938 C 60.226562 18.128906 59.324219 19.542969 58.40625 20.945312 C 57.847656 21.808594 57.59375 22.25 57.578125 23.273438 C 57.574219 23.488281 57.570312 23.699219 57.566406 23.921875 C 57.566406 24.152344 57.5625 24.382812 57.558594 24.621094 C 57.554688 24.976562 57.554688 24.976562 57.546875 25.339844 C 57.535156 25.964844 57.527344 26.59375 57.519531 27.222656 C 57.507812 27.863281 57.5 28.503906 57.488281 29.144531 C 57.46875 30.402344 57.449219 31.660156 57.433594 32.917969 C 55.429688 32.917969 53.421875 32.917969 51.359375 32.917969 C 51.378906 32.203125 51.394531 31.484375 51.414062 30.746094 C 51.761719 23.894531 51.761719 23.894531 48.726562 18.011719 C 47.859375 17.027344 47.859375 17.027344 47.859375 16.367188 C 47.738281 16.367188 47.617188 16.367188 47.492188 16.367188 C 47.5 16.503906 47.503906 16.644531 47.511719 16.785156 C 47.5625 18.742188 47.28125 20.378906 45.894531 21.84375 C 45.003906 22.691406 43.804688 23.539062 42.523438 23.539062 C 43 24.261719 43.480469 24.980469 43.960938 25.699219 C 44.128906 25.953125 44.296875 26.207031 44.464844 26.460938 C 45.605469 28.171875 46.75 29.875 47.933594 31.554688 C 48.597656 32.511719 48.597656 32.511719 48.597656 32.917969 C 42.851562 33.738281 42.851562 33.738281 41.277344 32.707031 C 40.015625 31.550781 39.378906 29.8125 38.753906 28.257812 C 38.375 27.351562 37.882812 26.539062 37.355469 25.710938 C 36.632812 24.519531 36.632812 24.519531 36.632812 24.09375 C 36.511719 24.09375 36.390625 24.09375 36.265625 24.09375 C 36.265625 27.003906 36.265625 29.917969 36.265625 32.917969 C 27.089844 32.917969 17.917969 32.917969 8.46875 32.917969 C 8.589844 32.183594 8.699219 31.605469 8.933594 30.921875 C 8.992188 30.75 9.046875 30.582031 9.105469 30.40625 C 9.171875 30.222656 9.234375 30.042969 9.296875 29.855469 C 9.363281 29.660156 9.429688 29.46875 9.496094 29.269531 C 9.710938 28.632812 9.929688 28 10.148438 27.367188 C 10.296875 26.929688 10.449219 26.488281 10.597656 26.046875 C 11.863281 22.351562 13.144531 18.664062 14.4375 14.980469 C 14.839844 13.839844 15.238281 12.695312 15.636719 11.550781 C 15.820312 11.015625 16.007812 10.480469 16.199219 9.929688 Z M 16.199219 9.929688 "/>
<path style=" stroke:none;fill-rule:nonzero;fill:rgb(99.215686%,98.431373%,98.039216%);fill-opacity:1;" d="M 33.871094 49.839844 C 35.085938 49.839844 36.300781 49.839844 37.550781 49.839844 C 37.726562 50.875 37.902344 51.910156 38.074219 52.945312 C 38.128906 53.292969 38.1875 53.644531 38.25 53.992188 C 38.738281 56.890625 39.09375 59.792969 39.394531 62.710938 C 39.417969 62.566406 39.441406 62.417969 39.46875 62.265625 C 39.703125 60.871094 39.941406 59.476562 40.175781 58.085938 C 40.296875 57.367188 40.417969 56.652344 40.539062 55.933594 C 40.65625 55.242188 40.773438 54.550781 40.890625 53.859375 C 40.933594 53.597656 40.980469 53.332031 41.023438 53.070312 C 41.085938 52.699219 41.148438 52.332031 41.210938 51.960938 C 41.246094 51.75 41.28125 51.539062 41.320312 51.324219 C 41.40625 50.828125 41.503906 50.332031 41.601562 49.839844 C 42.632812 49.839844 43.667969 49.839844 44.730469 49.839844 C 45.28125 52.464844 45.738281 55.097656 46.144531 57.746094 C 46.230469 58.292969 46.316406 58.835938 46.402344 59.382812 C 46.453125 59.714844 46.507812 60.050781 46.558594 60.386719 C 46.582031 60.535156 46.605469 60.6875 46.628906 60.839844 C 46.648438 60.972656 46.667969 61.101562 46.691406 61.238281 C 46.757812 61.613281 46.84375 61.976562 46.941406 62.34375 C 46.972656 61.988281 46.972656 61.988281 47.007812 61.625 C 47.039062 61.300781 47.070312 60.976562 47.101562 60.65625 C 47.117188 60.5 47.128906 60.34375 47.144531 60.183594 C 47.273438 58.871094 47.46875 57.578125 47.675781 56.277344 C 47.734375 55.90625 47.792969 55.53125 47.847656 55.160156 C 47.925781 54.644531 48.007812 54.128906 48.085938 53.613281 C 48.128906 53.347656 48.167969 53.082031 48.210938 52.816406 C 48.269531 52.425781 48.332031 52.035156 48.390625 51.648438 C 48.425781 51.417969 48.460938 51.191406 48.496094 50.957031 C 48.597656 50.390625 48.597656 50.390625 48.78125 49.839844 C 49.933594 49.839844 51.089844 49.839844 52.277344 49.839844 C 52.070312 51.492188 52.070312 51.492188 51.917969 52.238281 C 51.867188 52.496094 51.867188 52.496094 51.816406 52.753906 C 51.777344 52.9375 51.738281 53.121094 51.703125 53.308594 C 51.617188 53.71875 51.535156 54.132812 51.453125 54.542969 C 51.382812 54.871094 51.382812 54.871094 51.316406 55.207031 C 51.089844 56.332031 50.863281 57.453125 50.640625 58.574219 C 50.507812 59.238281 50.375 59.898438 50.242188 60.5625 C 50.1875 60.828125 50.136719 61.09375 50.082031 61.363281 C 49.648438 63.527344 49.214844 65.695312 48.78125 67.863281 C 47.6875 67.863281 46.59375 67.863281 45.46875 67.863281 C 45.242188 66.714844 45.015625 65.566406 44.789062 64.417969 C 44.714844 64.03125 44.636719 63.640625 44.558594 63.253906 C 44.101562 60.929688 43.65625 58.609375 43.257812 56.277344 C 43.199219 56.277344 43.136719 56.277344 43.074219 56.277344 C 43.011719 56.597656 43.011719 56.597656 42.949219 56.925781 C 42.796875 57.742188 42.640625 58.558594 42.484375 59.375 C 42.417969 59.722656 42.351562 60.074219 42.285156 60.421875 C 42.058594 61.617188 41.832031 62.808594 41.601562 64 C 41.566406 64.175781 41.535156 64.355469 41.5 64.535156 C 41.398438 65.050781 41.296875 65.566406 41.195312 66.082031 C 41.164062 66.242188 41.136719 66.398438 41.105469 66.5625 C 40.886719 67.65625 40.886719 67.65625 40.679688 67.863281 C 40.433594 67.878906 40.1875 67.882812 39.9375 67.878906 C 39.789062 67.878906 39.640625 67.878906 39.488281 67.878906 C 39.332031 67.875 39.175781 67.875 39.011719 67.875 C 38.855469 67.871094 38.699219 67.871094 38.535156 67.871094 C 38.148438 67.867188 37.757812 67.867188 37.367188 67.863281 C 37.335938 67.6875 37.300781 67.515625 37.265625 67.335938 C 36.707031 64.421875 36.148438 61.507812 35.515625 58.609375 C 35.105469 56.726562 34.722656 54.84375 34.355469 52.953125 C 34.328125 52.828125 34.304688 52.703125 34.28125 52.574219 C 34.210938 52.21875 34.140625 51.863281 34.074219 51.511719 C 34.035156 51.308594 33.996094 51.105469 33.953125 50.894531 C 33.871094 50.390625 33.871094 50.390625 33.871094 49.839844 Z M 33.871094 49.839844 "/>
<path style=" stroke:none;fill-rule:nonzero;fill:rgb(99.215686%,98.039216%,97.647059%);fill-opacity:1;" d="M 13.4375 49.839844 C 14.652344 49.839844 15.867188 49.839844 17.121094 49.839844 C 17.613281 51.152344 18.109375 52.46875 18.601562 53.78125 C 18.832031 54.390625 19.0625 55.003906 19.292969 55.613281 C 19.558594 56.316406 19.820312 57.019531 20.085938 57.722656 C 20.207031 58.046875 20.207031 58.046875 20.332031 58.378906 C 20.757812 59.511719 21.164062 60.644531 21.539062 61.792969 C 21.511719 61.648438 21.484375 61.503906 21.457031 61.355469 C 21.082031 59 21.128906 56.648438 21.144531 54.265625 C 21.148438 53.832031 21.148438 53.402344 21.152344 52.972656 C 21.15625 51.929688 21.160156 50.882812 21.167969 49.839844 C 22.324219 49.839844 23.476562 49.839844 24.667969 49.839844 C 24.667969 55.847656 24.667969 61.855469 24.667969 68.046875 C 23.511719 68.046875 22.359375 68.046875 21.167969 68.046875 C 21.046875 67.722656 20.921875 67.394531 20.796875 67.058594 C 20.625 66.605469 20.453125 66.152344 20.285156 65.699219 C 20.238281 65.582031 20.195312 65.464844 20.148438 65.34375 C 19.632812 63.980469 19.109375 62.617188 18.570312 61.261719 C 18.527344 61.148438 18.480469 61.03125 18.433594 60.914062 C 18.210938 60.359375 17.992188 59.804688 17.769531 59.253906 C 17.6875 59.054688 17.609375 58.851562 17.527344 58.644531 C 17.457031 58.472656 17.386719 58.296875 17.316406 58.117188 C 17.082031 57.457031 16.921875 56.773438 16.75 56.09375 C 16.691406 59.976562 16.628906 63.859375 16.566406 67.863281 C 15.535156 67.863281 14.5 67.863281 13.4375 67.863281 C 13.4375 61.914062 13.4375 55.96875 13.4375 49.839844 Z M 13.4375 49.839844 "/>
<path style=" stroke:none;fill-rule:nonzero;fill:rgb(99.215686%,97.647059%,97.254902%);fill-opacity:1;" d="M 25.769531 49.839844 C 28.140625 49.839844 30.507812 49.839844 32.949219 49.839844 C 33.503906 52.230469 33.503906 52.230469 33.503906 53.148438 C 32.105469 53.148438 30.707031 53.148438 29.269531 53.148438 C 29.269531 54.363281 29.269531 55.578125 29.269531 56.828125 C 30.542969 56.828125 31.820312 56.828125 33.132812 56.828125 C 33.132812 57.921875 33.132812 59.011719 33.132812 60.136719 C 31.859375 60.136719 30.582031 60.136719 29.269531 60.136719 C 29.269531 61.535156 29.269531 62.929688 29.269531 64.367188 C 30.664062 64.367188 32.0625 64.367188 33.503906 64.367188 C 33.503906 65.582031 33.503906 66.796875 33.503906 68.046875 C 30.949219 68.046875 28.398438 68.046875 25.769531 68.046875 C 25.769531 62.039062 25.769531 56.03125 25.769531 49.839844 Z M 25.769531 49.839844 "/>
<path style=" stroke:none;fill-rule:nonzero;fill:rgb(99.215686%,98.431373%,98.039216%);fill-opacity:1;" d="M 60.011719 50.390625 C 60.011719 51.484375 60.011719 52.574219 60.011719 53.699219 C 59.585938 53.519531 59.160156 53.335938 58.722656 53.148438 C 58.179688 53.0625 58.179688 53.0625 57.664062 53.082031 C 57.40625 53.078125 57.40625 53.078125 57.148438 53.074219 C 56.695312 53.117188 56.695312 53.117188 56.363281 53.375 C 56.078125 53.800781 56.066406 54.074219 56.0625 54.585938 C 56.058594 54.738281 56.054688 54.890625 56.054688 55.050781 C 56.320312 56.492188 57.683594 57.417969 58.734375 58.332031 C 59.847656 59.332031 60.734375 60.375 60.867188 61.917969 C 60.871094 62.210938 60.871094 62.5 60.859375 62.792969 C 60.859375 62.945312 60.855469 63.097656 60.851562 63.257812 C 60.785156 64.910156 60.308594 65.992188 59.089844 67.125 C 57.796875 68.15625 56.296875 68.382812 54.671875 68.230469 C 53.851562 68.03125 53.164062 67.777344 52.460938 67.308594 C 52.398438 66.929688 52.398438 66.929688 52.410156 66.46875 C 52.410156 66.304688 52.414062 66.140625 52.414062 65.96875 C 52.417969 65.796875 52.421875 65.625 52.429688 65.449219 C 52.429688 65.273438 52.433594 65.101562 52.4375 64.921875 C 52.441406 64.492188 52.453125 64.0625 52.460938 63.632812 C 52.886719 63.839844 53.289062 64.054688 53.695312 64.300781 C 54.570312 64.664062 55.472656 64.75 56.367188 64.386719 C 56.726562 64.207031 56.726562 64.207031 56.878906 63.816406 C 57.015625 63.074219 57.042969 62.429688 56.644531 61.769531 C 56.097656 61.132812 55.484375 60.589844 54.84375 60.046875 C 54.105469 59.414062 53.539062 58.75 53.015625 57.929688 C 52.9375 57.816406 52.863281 57.699219 52.785156 57.578125 C 51.980469 56.121094 52 54.160156 52.433594 52.585938 C 52.988281 51.363281 53.902344 50.402344 55.105469 49.808594 C 56.8125 49.269531 58.425781 49.714844 60.011719 50.390625 Z M 60.011719 50.390625 "/>
<path style=" stroke:none;fill-rule:nonzero;fill:rgb(5.490196%,3.921569%,3.921569%);fill-opacity:1;" d="M 19.878906 16.367188 C 20.003906 16.367188 20.125 16.367188 20.25 16.367188 C 20.289062 16.535156 20.328125 16.707031 20.371094 16.878906 C 20.871094 18.964844 21.492188 21.003906 22.136719 23.046875 C 22.335938 23.683594 22.535156 24.324219 22.738281 24.964844 C 22.804688 25.179688 22.804688 25.179688 22.875 25.402344 C 23.050781 25.964844 23.195312 26.441406 23.195312 27.035156 C 21.128906 27.035156 19.0625 27.035156 16.933594 27.035156 C 17.179688 25.808594 17.445312 24.644531 17.808594 23.457031 C 17.855469 23.300781 17.90625 23.144531 17.953125 22.980469 C 18.105469 22.484375 18.257812 21.988281 18.40625 21.496094 C 18.558594 20.996094 18.710938 20.5 18.863281 20.003906 C 18.957031 19.695312 19.050781 19.386719 19.144531 19.082031 C 19.417969 18.179688 19.660156 17.28125 19.878906 16.367188 Z M 19.878906 16.367188 "/>
<path style=" stroke:none;fill-rule:nonzero;fill:rgb(3.529412%,1.960784%,2.352941%);fill-opacity:1;" d="M 36.265625 14.710938 C 39.636719 14.710938 39.636719 14.710938 40.679688 15.449219 C 41.5 16.320312 41.484375 17.257812 41.46875 18.398438 C 41.398438 19.160156 41.226562 19.511719 40.679688 20.046875 C 39.285156 21.042969 38.039062 20.78125 36.265625 20.78125 C 36.265625 18.777344 36.265625 16.777344 36.265625 14.710938 Z M 36.265625 14.710938 "/>
<path style=" stroke:none;fill-rule:nonzero;fill:rgb(78.823531%,30.588236%,27.450982%);fill-opacity:1;" d="M 21.167969 59.035156 C 21.230469 59.035156 21.289062 59.035156 21.351562 59.035156 C 21.414062 59.476562 21.476562 59.914062 21.539062 60.355469 C 21.554688 60.480469 21.574219 60.605469 21.589844 60.730469 C 21.679688 61.398438 21.742188 62.039062 21.722656 62.710938 C 21.363281 62.175781 21.214844 61.777344 21.042969 61.160156 C 20.96875 60.898438 20.96875 60.898438 20.890625 60.632812 C 20.773438 59.984375 20.878906 59.613281 21.167969 59.035156 Z M 21.167969 59.035156 "/>
<path style=" stroke:none;fill-rule:nonzero;fill:rgb(80.784315%,38.82353%,33.333334%);fill-opacity:1;" d="M 16.566406 55.539062 C 16.957031 56.125 17.027344 56.507812 17.121094 57.195312 C 16.9375 57.257812 16.753906 57.316406 16.566406 57.378906 C 16.566406 56.773438 16.566406 56.164062 16.566406 55.539062 Z M 16.566406 55.539062 "/>
</g>
</svg>
