<svg width="438" height="460" viewBox="0 0 438 460" fill="none" xmlns="http://www.w3.org/2000/svg">
<g clip-path="url(#clip0_1771_13246)">
<path d="M161.043 168.353L172.613 145.378L194.35 145.183L170.319 183.466L170.611 215.249L152.281 215.416L151.989 183.285L140.391 164.986C140.391 164.986 140.725 166.182 140.433 169.94C139.195 186.263 124.982 187.446 124.982 187.446L144.396 215.5L123.007 215.695L106.806 188.587L107.056 215.848L22.126 216.627L45.3923 146.909L69.5627 146.686L89.0185 201.514L88.5179 146.157L149.055 145.601L161.043 168.353ZM47.6731 198.119L66.9064 197.938L57.1994 165.473L47.6731 198.119ZM106.653 179.096L112.229 179.04C117.736 178.985 122.173 176.299 122.103 169.745C122.048 163.19 117.277 160.658 112.062 160.699L106.486 160.755L106.653 179.096Z" fill="white"/>
<path d="M23.4472 374.14H97.1402L94.3032 389.906H0L2.83702 374.14L94.5674 257.289H23.4472L26.2842 241.522H118.015L115.178 257.289L23.4472 374.14Z" fill="white"/>
<path d="M123.689 275.352C131.421 263.843 140.905 254.965 152.156 248.717C163.407 242.469 175.478 239.338 188.356 239.338C201.234 239.338 212.749 242.594 221.343 249.12C229.924 255.647 235.515 263.982 238.087 274.113L243.497 241.508H261.534L236.794 389.878H218.757L224.166 356.995C218.326 367.14 209.953 375.517 199.037 382.127C188.12 388.737 175.979 392.049 162.572 392.049C151.405 392.049 141.615 389.6 133.201 384.716C124.787 379.817 118.251 372.887 113.62 363.925C108.975 354.964 106.666 344.402 106.666 332.267C106.666 327.021 107.181 321.399 108.21 315.415C110.783 300.191 115.942 286.832 123.675 275.338L123.689 275.352ZM232.441 302.126C232.441 288.001 228.408 276.757 220.328 268.435C212.248 260.1 201.776 255.939 188.884 255.939C178.913 255.939 169.595 258.291 160.931 263.008C152.253 267.726 144.911 274.558 138.903 283.52C132.881 292.482 128.848 303.127 126.79 315.457C125.928 320.898 125.496 325.518 125.496 329.317C125.496 343.636 129.488 354.908 137.484 363.146C145.467 371.384 155.911 375.503 168.789 375.503C178.413 375.503 187.647 373.054 196.492 368.17C205.336 363.285 212.804 356.3 218.91 347.24C225.001 338.181 229.09 327.675 231.148 315.721C232.01 310.656 232.441 306.119 232.441 302.139V302.126Z" fill="white"/>
<path d="M319.916 249.273C330.819 242.663 342.89 239.351 356.116 239.351C373.124 239.351 386.739 244.653 396.961 255.243C407.182 265.847 412.3 280.292 412.3 298.591C412.3 303.851 411.785 309.459 410.756 315.443C408.183 330.667 403.024 344.068 395.292 355.66C387.559 367.251 378.061 376.227 366.824 382.559C355.573 388.904 343.502 392.063 330.624 392.063C317.746 392.063 306.482 388.765 297.901 382.141C289.307 375.531 283.549 367.237 280.629 357.274L263.621 460H245.583L282.172 241.522H300.21L294.8 274.127C300.641 264.163 309.013 255.883 319.93 249.259L319.916 249.273ZM393.748 301.583C393.748 287.277 389.757 276.089 381.76 268.018C373.778 259.961 363.25 255.925 350.191 255.925C340.568 255.925 331.375 258.374 322.614 263.259C313.852 268.143 306.384 275.129 300.196 284.188C294.007 293.247 289.891 303.754 287.833 315.707C286.97 320.787 286.539 325.309 286.539 329.289C286.539 343.414 290.572 354.658 298.652 362.979C306.718 371.315 317.204 375.476 330.096 375.476C340.053 375.476 349.385 373.082 358.049 368.281C366.727 363.48 374.111 356.508 380.217 347.352C386.308 338.209 390.396 327.564 392.455 315.415C393.317 309.974 393.748 305.354 393.748 301.555V301.583Z" fill="white"/>
<mask id="mask0_1771_13246" style="mask-type:luminance" maskUnits="userSpaceOnUse" x="210" y="3" width="225" height="214">
<path d="M422.953 78.0258L233.887 4.71744C221.733 -1.19209e-05 208.924 9.86627 210.357 22.8219L218.451 95.8101C218.729 98.2871 221.149 99.9153 223.541 99.2473L331.014 69.064C336.076 67.6446 340.568 72.6404 338.607 77.5248L327.161 106.108C325.298 110.756 329.317 115.626 334.226 114.694L412.175 99.8318C414.998 99.2891 416.069 103.38 413.329 104.285L277.722 149.108C272.66 150.777 267.918 145.823 269.809 140.842L279.502 115.278C281.157 110.895 277.667 106.289 273.008 106.72L224.278 111.159C222.025 111.368 220.384 113.372 220.634 115.626L230.119 201.139C231.523 213.83 245.681 220.704 256.514 213.983L425.79 108.974C437.958 101.418 436.275 83.2024 422.911 78.0119L422.953 78.0258Z" fill="white"/>
</mask>
<g mask="url(#mask0_1771_13246)">
<path d="M213.555 0L208.924 27.1497V0H213.555Z" fill="#9800D4"/>
<path d="M214.946 0L208.924 35.3182V27.1497L213.555 0H214.946Z" fill="#9800D4"/>
<path d="M216.337 0L208.924 43.5007V35.3182L214.946 0H216.337Z" fill="#9901D2"/>
<path d="M217.727 0L208.924 51.6693V43.5007L216.337 0H217.727Z" fill="#9B02CF"/>
<path d="M219.118 0L208.924 59.8518V51.6693L217.727 0H219.118Z" fill="#9C03CD"/>
<path d="M220.509 0L208.924 68.0203V59.8518L219.118 0H220.509Z" fill="#9E04CA"/>
<path d="M221.914 0L208.924 76.2028V68.0203L220.509 0H221.914Z" fill="#9F05C8"/>
<path d="M223.304 0L208.924 84.3714V76.2028L221.914 0H223.304Z" fill="#A106C6"/>
<path d="M224.695 0L208.924 92.5538V84.3714L223.304 0H224.695Z" fill="#A207C3"/>
<path d="M226.086 0L208.924 100.722V92.5538L224.695 0H226.086Z" fill="#A407C1"/>
<path d="M227.476 0L208.924 108.905V100.722L226.086 0H227.476Z" fill="#A508BF"/>
<path d="M228.867 0L208.924 117.073V108.905L227.476 0H228.867Z" fill="#A609BC"/>
<path d="M230.272 0L208.924 125.256V117.073L228.867 0H230.272Z" fill="#A80ABA"/>
<path d="M231.662 0L208.924 133.424V125.256L230.272 0H231.662Z" fill="#A90BB8"/>
<path d="M233.053 0L208.924 141.607V133.424L231.662 0H233.053Z" fill="#AA0CB6"/>
<path d="M234.444 0L208.924 149.776V141.607L233.053 0H234.444Z" fill="#AC0DB3"/>
<path d="M235.834 0L208.924 157.958V149.776L234.444 0H235.834Z" fill="#AD0EB1"/>
<path d="M237.225 0L208.924 166.127V157.958L235.834 0H237.225Z" fill="#AE0EAF"/>
<path d="M238.282 0L238.616 0.0556631L208.924 174.309V166.127L237.225 0H238.282Z" fill="#B00FAD"/>
<path d="M238.616 0.0556641L239.965 0.292232L208.924 182.478V174.309L238.616 0.0556641Z" fill="#B110AB"/>
<path d="M239.965 0.292236L241.328 0.514889L208.924 190.66V182.478L239.965 0.292236Z" fill="#B211A9"/>
<path d="M241.328 0.514893L242.677 0.751461L208.924 198.829V190.66L241.328 0.514893Z" fill="#B312A7"/>
<path d="M242.677 0.751465L244.026 0.974117L208.924 207.011V198.829L242.677 0.751465Z" fill="#B512A5"/>
<path d="M244.026 0.974121L245.388 1.21069L208.924 215.18V207.011L244.026 0.974121Z" fill="#B613A3"/>
<path d="M245.388 1.21069L246.737 1.44726L209.94 217.434L208.924 217.267V215.18L245.388 1.21069Z" fill="#B714A1"/>
<path d="M246.755 1.46045L209.935 217.459L211.292 217.69L248.112 1.69209L246.755 1.46045Z" fill="#B8159F"/>
<path d="M248.121 1.67267L211.301 217.671L212.658 217.902L249.479 1.90431L248.121 1.67267Z" fill="#BA169D"/>
<path d="M249.471 1.91259L212.651 217.911L214.008 218.142L250.828 2.14424L249.471 1.91259Z" fill="#BB169B"/>
<path d="M250.821 2.1502L214.001 218.148L215.358 218.38L252.179 2.38185L250.821 2.1502Z" fill="#BC1799"/>
<path d="M252.174 2.3764L215.353 218.375L216.71 218.606L253.531 2.60805L252.174 2.3764Z" fill="#BD1897"/>
<path d="M253.524 2.59997L216.703 218.598L218.061 218.83L254.881 2.83162L253.524 2.59997Z" fill="#BE1895"/>
<path d="M254.888 2.8399L218.067 218.838L219.424 219.07L256.245 3.07155L254.888 2.8399Z" fill="#BF1993"/>
<path d="M256.24 3.0661L219.42 219.064L220.777 219.296L257.597 3.29774L256.24 3.0661Z" fill="#C01A91"/>
<path d="M257.59 3.30365L220.77 219.302L222.127 219.533L258.947 3.5353L257.59 3.30365Z" fill="#C21B8F"/>
<path d="M258.94 3.5296L222.12 219.528L223.477 219.759L260.297 3.76125L258.94 3.5296Z" fill="#C31B8E"/>
<path d="M260.292 3.75348L223.472 219.752L224.829 219.983L261.65 3.98512L260.292 3.75348Z" fill="#C41C8C"/>
<path d="M261.656 3.99334L224.836 219.991L226.193 220.223L263.013 4.22499L261.656 3.99334Z" fill="#C51D8A"/>
<path d="M263.006 4.23327L226.186 220.231L227.543 220.463L264.363 4.46492L263.006 4.23327Z" fill="#C61D88"/>
<path d="M264.359 4.44317L227.538 220.441L228.895 220.673L265.716 4.67482L264.359 4.44317Z" fill="#C71E87"/>
<path d="M265.693 4.67572L267.042 4.89837L230.272 220.718H229.159L228.881 220.676L265.693 4.67572Z" fill="#C81F85"/>
<path d="M267.042 4.89838L268.391 5.13494L231.662 220.718H230.272L267.042 4.89838Z" fill="#C91F83"/>
<path d="M268.391 5.13495L269.753 5.37152L233.053 220.718H231.662L268.391 5.13495Z" fill="#CA2081"/>
<path d="M269.753 5.37152L271.102 5.59417L234.444 220.718H233.053L269.753 5.37152Z" fill="#CB2180"/>
<path d="M271.102 5.59412L272.451 5.83068L235.834 220.718H234.444L271.102 5.59412Z" fill="#CC217E"/>
<path d="M272.451 5.83069L273.8 6.05334L237.239 220.718H235.834L272.451 5.83069Z" fill="#CD227C"/>
<path d="M273.8 6.05334L275.163 6.28991L238.63 220.718H237.239L273.8 6.05334Z" fill="#CE237B"/>
<path d="M275.163 6.28992L276.512 6.52649L240.02 220.718H238.63L275.163 6.28992Z" fill="#CF2379"/>
<path d="M276.512 6.52649L277.861 6.74914L241.411 220.718H240.02L276.512 6.52649Z" fill="#D02478"/>
<path d="M277.861 6.74915L279.224 6.98571L242.802 220.718H241.411L277.861 6.74915Z" fill="#D12476"/>
<path d="M279.224 6.98572L280.573 7.20837L244.192 220.718H242.802L279.224 6.98572Z" fill="#D22575"/>
<path d="M280.573 7.20837L281.922 7.44494L245.597 220.718H244.192L280.573 7.20837Z" fill="#D32673"/>
<path d="M281.922 7.44495L283.285 7.68151L246.988 220.718H245.597L281.922 7.44495Z" fill="#D42672"/>
<path d="M283.285 7.68152L284.634 7.90417L248.378 220.718H246.988L283.285 7.68152Z" fill="#D42770"/>
<path d="M284.634 7.90417L285.983 8.14074L249.769 220.718H248.378L284.634 7.90417Z" fill="#D5276F"/>
<path d="M285.983 8.14075L287.346 8.3634L251.16 220.718H249.769L285.983 8.14075Z" fill="#D6286D"/>
<path d="M287.346 8.3634L288.695 8.59997L252.551 220.718H251.16L287.346 8.3634Z" fill="#D7286C"/>
<path d="M288.695 8.59998L290.044 8.83654L253.941 220.718H252.551L288.695 8.59998Z" fill="#D8296A"/>
<path d="M290.044 8.83655L291.407 9.0592L255.346 220.718H253.941L290.044 8.83655Z" fill="#D92A69"/>
<path d="M291.407 9.05914L292.756 9.29571L256.737 220.718H255.346L291.407 9.05914Z" fill="#DA2A68"/>
<path d="M292.756 9.29572L294.105 9.51837L258.127 220.718H256.737L292.756 9.29572Z" fill="#DA2B66"/>
<path d="M294.105 9.51837L295.467 9.75494L259.518 220.718H258.127L294.105 9.51837Z" fill="#DB2B65"/>
<path d="M295.467 9.75494L296.816 9.99151L260.909 220.718H259.518L295.467 9.75494Z" fill="#DC2C64"/>
<path d="M296.816 9.99152L298.165 10.2142L262.299 220.718H260.909L296.816 9.99152Z" fill="#DD2C62"/>
<path d="M298.165 10.2142L299.528 10.4507L263.704 220.718H262.299L298.165 10.2142Z" fill="#DE2D61"/>
<path d="M299.528 10.4507L300.877 10.6734L265.095 220.718H263.704L299.528 10.4507Z" fill="#DE2D60"/>
<path d="M300.877 10.6734L302.226 10.91L266.485 220.718H265.095L300.877 10.6734Z" fill="#DF2E5F"/>
<path d="M302.226 10.91L303.589 11.1465L267.876 220.718H266.485L302.226 10.91Z" fill="#E02E5D"/>
<path d="M303.589 11.1465L304.938 11.3692L269.267 220.718H267.876L303.589 11.1465Z" fill="#E12F5C"/>
<path d="M304.938 11.3692L306.287 11.6058L270.657 220.718H269.267L304.938 11.3692Z" fill="#E12F5B"/>
<path d="M306.287 11.6058L307.65 11.8284L272.062 220.718H270.657L306.287 11.6058Z" fill="#E22F5A"/>
<path d="M307.65 11.8284L308.999 12.065L273.453 220.718H272.062L307.65 11.8284Z" fill="#E33059"/>
<path d="M308.999 12.065L310.348 12.3016L274.843 220.718H273.453L308.999 12.065Z" fill="#E33058"/>
<path d="M310.348 12.3016L311.711 12.5242L276.234 220.718H274.843L310.348 12.3016Z" fill="#E43156"/>
<path d="M311.711 12.5242L313.06 12.7608L277.625 220.718H276.234L311.711 12.5242Z" fill="#E53155"/>
<path d="M313.06 12.7607L314.409 12.9834L279.016 220.718H277.625L313.06 12.7607Z" fill="#E53254"/>
<path d="M314.409 12.9834L315.772 13.22L280.42 220.718H279.016L314.409 12.9834Z" fill="#E63253"/>
<path d="M315.772 13.22L317.121 13.4426L281.811 220.718H280.42L315.772 13.22Z" fill="#E73252"/>
<path d="M317.121 13.4426L318.47 13.6792L283.201 220.718H281.811L317.121 13.4426Z" fill="#E73351"/>
<path d="M318.47 13.6792L319.832 13.9158L284.592 220.718H283.202L318.47 13.6792Z" fill="#E83350"/>
<path d="M319.832 13.9158L321.181 14.1384L285.983 220.718H284.592L319.832 13.9158Z" fill="#E9344F"/>
<path d="M321.181 14.1384L322.53 14.375L287.374 220.718H285.983L321.181 14.1384Z" fill="#E9344E"/>
<path d="M322.53 14.375L323.893 14.5977L288.778 220.718H287.374L322.53 14.375Z" fill="#EA344D"/>
<path d="M323.893 14.5977L325.242 14.8342L290.169 220.718H288.778L323.893 14.5977Z" fill="#EA354C"/>
<path d="M325.242 14.8342L326.591 15.0708L291.56 220.718H290.169L325.242 14.8342Z" fill="#EB354B"/>
<path d="M326.591 15.0708L327.954 15.2935L292.95 220.718H291.56L326.591 15.0708Z" fill="#EB354A"/>
<path d="M327.954 15.2935L329.303 15.53L294.341 220.718H292.95L327.954 15.2935Z" fill="#EC3649"/>
<path d="M329.303 15.53L330.652 15.7527L295.732 220.718H294.341L329.303 15.53Z" fill="#ED3648"/>
<path d="M330.652 15.7527L332.015 15.9893L297.122 220.718H295.732L330.652 15.7527Z" fill="#ED3748"/>
<path d="M332.015 15.9893L333.364 16.2258L298.527 220.718H297.122L332.015 15.9893Z" fill="#EE3747"/>
<path d="M333.364 16.2258L334.713 16.4484L299.918 220.718H298.527L333.364 16.2258Z" fill="#EE3746"/>
<path d="M334.713 16.4484L336.076 16.685L301.308 220.718H299.918L334.713 16.4484Z" fill="#EF3845"/>
<path d="M336.076 16.685L337.425 16.9076L302.699 220.718H301.308L336.076 16.685Z" fill="#EF3844"/>
<path d="M337.425 16.9077L338.774 17.1442L304.09 220.718H302.699L337.425 16.9077Z" fill="#F03843"/>
<path d="M338.774 17.1442L340.137 17.3808L305.48 220.718H304.09L338.774 17.1442Z" fill="#F03843"/>
<path d="M340.137 17.3808L341.486 17.6035L306.885 220.718H305.48L340.137 17.3808Z" fill="#F13942"/>
<path d="M341.486 17.6035L342.835 17.84L308.276 220.718H306.885L341.486 17.6035Z" fill="#F13941"/>
<path d="M342.835 17.84L344.197 18.0627L309.666 220.718H308.276L342.835 17.84Z" fill="#F23940"/>
<path d="M344.197 18.0627L345.546 18.2993L311.057 220.718H309.666L344.197 18.0627Z" fill="#F23A40"/>
<path d="M345.546 18.2993L346.895 18.5358L312.448 220.718H311.057L345.546 18.2993Z" fill="#F23A3F"/>
<path d="M346.895 18.5358L348.258 18.7585L313.839 220.718H312.448L346.895 18.5358Z" fill="#F33A3E"/>
<path d="M348.258 18.7585L349.607 18.9951L315.243 220.718H313.839L348.258 18.7585Z" fill="#F33A3D"/>
<path d="M349.607 18.9951L350.956 19.2177L316.634 220.718H315.243L349.607 18.9951Z" fill="#F43B3D"/>
<path d="M350.956 19.2177L352.319 19.4543L318.025 220.718H316.634L350.956 19.2177Z" fill="#F43B3C"/>
<path d="M352.319 19.4543L353.668 19.6909L319.415 220.718H318.025L352.319 19.4543Z" fill="#F43B3B"/>
<path d="M353.668 19.6908L355.017 19.9134L320.806 220.718H319.415L353.668 19.6908Z" fill="#F53B3B"/>
<path d="M355.017 19.9135L356.38 20.15L322.197 220.718H320.806L355.017 19.9135Z" fill="#F53C3A"/>
<path d="M356.38 20.15L357.729 20.3727L323.601 220.718H322.197L356.38 20.15Z" fill="#F63C3A"/>
<path d="M357.729 20.3727L359.078 20.6092L324.992 220.718H323.601L357.729 20.3727Z" fill="#F63C39"/>
<path d="M359.078 20.6093L360.441 20.8458L326.383 220.718H324.992L359.078 20.6093Z" fill="#F63C38"/>
<path d="M360.441 20.8458L361.79 21.0685L327.773 220.718H326.383L360.441 20.8458Z" fill="#F73D38"/>
<path d="M361.79 21.0685L363.139 21.305L329.164 220.718H327.773L361.79 21.0685Z" fill="#F73D37"/>
<path d="M363.139 21.3051L364.502 21.5277L330.555 220.718H329.164L363.139 21.3051Z" fill="#F73D37"/>
<path d="M364.502 21.5277L365.851 21.7643L331.959 220.718H330.555L364.502 21.5277Z" fill="#F83D36"/>
<path d="M365.851 21.7643L367.2 21.9869L333.35 220.718H331.959L365.851 21.7643Z" fill="#F83D36"/>
<path d="M367.2 21.9869L368.562 22.2235L334.741 220.718H333.35L367.2 21.9869Z" fill="#F83E35"/>
<path d="M368.562 22.2235L369.911 22.4601L336.131 220.718H334.741L368.562 22.2235Z" fill="#F93E35"/>
<path d="M369.911 22.4601L371.26 22.6827L337.522 220.718H336.131L369.911 22.4601Z" fill="#F93E34"/>
<path d="M371.26 22.6827L372.623 22.9193L338.913 220.718H337.522L371.26 22.6827Z" fill="#F93E34"/>
<path d="M372.623 22.9193L373.972 23.142L340.304 220.718H338.913L372.623 22.9193Z" fill="#F93E33"/>
<path d="M373.972 23.142L375.321 23.3785L341.708 220.718H340.304L373.972 23.142Z" fill="#FA3F33"/>
<path d="M375.321 23.3785L376.684 23.615L343.099 220.718H341.708L375.321 23.3785Z" fill="#FA3F32"/>
<path d="M376.684 23.6151L378.033 23.8377L344.49 220.718H343.099L376.684 23.6151Z" fill="#FA3F32"/>
<path d="M378.033 23.8377L379.382 24.0743L345.88 220.718H344.49L378.033 23.8377Z" fill="#FA3F32"/>
<path d="M379.382 24.0743L380.745 24.2969L347.271 220.718H345.88L379.382 24.0743Z" fill="#FB3F31"/>
<path d="M380.745 24.2969L382.094 24.5335L348.662 220.718H347.271L380.745 24.2969Z" fill="#FB3F31"/>
<path d="M382.094 24.5335L383.443 24.7701L350.066 220.718H348.662L382.094 24.5335Z" fill="#FB3F31"/>
<path d="M383.443 24.7701L384.806 24.9927L351.457 220.718H350.066L383.443 24.7701Z" fill="#FB4030"/>
<path d="M384.806 24.9927L386.155 25.2293L352.848 220.718H351.457L384.806 24.9927Z" fill="#FB4030"/>
<path d="M386.155 25.2293L387.504 25.452L354.238 220.718H352.848L386.155 25.2293Z" fill="#FC4030"/>
<path d="M387.504 25.452L388.867 25.6885L355.629 220.718H354.238L387.504 25.452Z" fill="#FC402F"/>
<path d="M388.867 25.6885L390.216 25.9251L357.02 220.718H355.629L388.867 25.6885Z" fill="#FC402F"/>
<path d="M390.216 25.9251L391.565 26.1478L358.424 220.718H357.02L390.216 25.9251Z" fill="#FC402F"/>
<path d="M391.565 26.1478L392.928 26.3843L359.815 220.718H358.424L391.565 26.1478Z" fill="#FC402E"/>
<path d="M392.927 26.3843L394.276 26.607L361.206 220.718H359.815L392.927 26.3843Z" fill="#FD402E"/>
<path d="M394.276 26.607L395.625 26.8436L362.596 220.718H361.206L394.276 26.607Z" fill="#FD412E"/>
<path d="M395.625 26.8436L396.988 27.0801L363.987 220.718H362.596L395.625 26.8436Z" fill="#FD412E"/>
<path d="M396.988 27.0801L398.337 27.3027L365.378 220.718H363.987L396.988 27.0801Z" fill="#FD412D"/>
<path d="M398.337 27.3027L399.686 27.5393L366.782 220.718H365.378L398.337 27.3027Z" fill="#FD412D"/>
<path d="M399.686 27.5393L401.049 27.762L368.173 220.718H366.782L399.686 27.5393Z" fill="#FD412D"/>
<path d="M401.049 27.762L402.398 27.9985L369.564 220.718H368.173L401.049 27.762Z" fill="#FD412D"/>
<path d="M402.398 27.9985L403.747 28.2351L370.954 220.718H369.564L402.398 27.9985Z" fill="#FE412C"/>
<path d="M403.747 28.2351L405.11 28.4578L372.345 220.718H370.954L403.747 28.2351Z" fill="#FE412C"/>
<path d="M405.11 28.4578L406.459 28.6943L373.736 220.718H372.345L405.11 28.4578Z" fill="#FE412C"/>
<path d="M406.459 28.6943L407.808 28.917L375.14 220.718H373.736L406.459 28.6943Z" fill="#FE412C"/>
<path d="M407.808 28.917L409.171 29.1536L376.531 220.718H375.141L407.808 28.917Z" fill="#FE412C"/>
<path d="M409.171 29.1536L410.52 29.3901L377.922 220.718H376.531L409.171 29.1536Z" fill="#FE412C"/>
<path d="M410.52 29.3901L411.869 29.6128L379.313 220.718H377.922L410.52 29.3901Z" fill="#FE412B"/>
<path d="M411.869 29.6128L413.232 29.8494L380.703 220.718H379.313L411.869 29.6128Z" fill="#FE422B"/>
<path d="M413.232 29.8494L414.581 30.072L382.094 220.718H380.703L413.232 29.8494Z" fill="#FE422B"/>
<path d="M414.581 30.072L415.93 30.3086L383.485 220.718H382.094L414.581 30.072Z" fill="#FE422B"/>
<path d="M415.93 30.3086L417.292 30.5312L384.889 220.718H383.485L415.93 30.3086Z" fill="#FE422B"/>
<path d="M417.293 30.5312L418.641 30.7678L386.28 220.718H384.889L417.293 30.5312Z" fill="#FF422B"/>
<path d="M418.641 30.7678L419.99 31.0043L387.671 220.718H386.28L418.641 30.7678Z" fill="#FF422B"/>
<path d="M419.99 31.0043L421.353 31.227L389.061 220.718H387.671L419.99 31.0043Z" fill="#FF422B"/>
<path d="M421.353 31.227L422.702 31.4636L390.452 220.718H389.061L421.353 31.227Z" fill="#FF422B"/>
<path d="M422.702 31.4636L424.051 31.6862L391.843 220.718H390.452L422.702 31.4636Z" fill="#FF422A"/>
<path d="M424.051 31.6862L425.414 31.9228L393.247 220.718H391.843L424.051 31.6862Z" fill="#FF422A"/>
<path d="M425.414 31.9228L426.763 32.1594L394.638 220.718H393.247L425.414 31.9228Z" fill="#FF422A"/>
<path d="M426.763 32.1594L428.112 32.382L396.029 220.718H394.638L426.763 32.1594Z" fill="#FF422A"/>
<path d="M428.112 32.382L429.475 32.6186L397.419 220.718H396.029L428.112 32.382Z" fill="#FF422A"/>
<path d="M429.475 32.6186L430.824 32.8412L398.81 220.718H397.419L429.475 32.6186Z" fill="#FF422A"/>
<path d="M430.824 32.8412L432.173 33.0778L400.201 220.718H398.81L430.824 32.8412Z" fill="#FF422A"/>
<path d="M432.173 33.0778L433.536 33.3144L401.605 220.718H400.201L432.173 33.0778Z" fill="#FF422A"/>
<path d="M433.536 33.3144L434.885 33.537L402.996 220.718H401.605L433.536 33.3144Z" fill="#FF422A"/>
<path d="M434.885 33.537L436.234 33.7736L404.387 220.718H402.996L434.885 33.537Z" fill="#FF422A"/>
<path d="M436.234 33.7736L437.597 33.9963L405.778 220.718H404.387L436.234 33.7736Z" fill="#FF422A"/>
<path d="M437.597 33.9963L438 34.0659V39.7992L407.168 220.718H405.778L437.597 33.9963Z" fill="#FF422A"/>
<path d="M438 47.9816L408.559 220.718H407.168L438 39.7991V47.9816Z" fill="#FF422A"/>
<path d="M438 56.1502L409.964 220.718H408.559L438 47.9816V56.1502Z" fill="#FF422A"/>
<path d="M438 64.3326L411.354 220.718H409.964L438 56.1501V64.3326Z" fill="#FF422A"/>
<path d="M438 72.5012L412.745 220.718H411.354L438 64.3326V72.5012Z" fill="#FF422A"/>
<path d="M412.745 220.718L438 72.5012V220.718H412.745Z" fill="#FF422A"/>
</g>
</g>
<defs>
<clipPath id="clip0_1771_13246">
<rect width="438" height="460" fill="white"/>
</clipPath>
</defs>
</svg>
